<svg viewBox="0 0 14 19" fill="none" width="23.578947" height="32" xmlns="http://www.w3.org/2000/svg" xmlns:xlink="http://www.w3.org/1999/xlink">
    <path clip-rule="evenodd" d="M1.4503 4.5025 1 0H0v4.5C0 6.433 1.567 8 3.5 8S7 6.433 7 4.5V0H6L5.5498 4.5025C5.5215 4.7849 5.2838 5 5 5S4.4785 4.7849 4.4502 4.5025L4 0H3L2.5498 4.5025C2.5215 4.7849 2.2838 5 2 5S1.4785 4.7849 1.4503 4.5025zM4.5555 10.9985C4.5244 10.4383 4.061 10 3.5 10s-1.0244 0.4383-1.0555 0.9985l-0.3613 6.5038c-14e-4 0.0262-22e-4 0.0525-22e-4 0.0787C2.081 18.3647 2.7163 19 3.5 19c0.0263 0 0.0525-7e-4 0.0787-22e-4 0.7825-0.0435 1.3816-0.713 1.3381-1.4955zM12.5 12c0.5634 0 1.0311 0.4354 1.0712 0.9975l0.3219 4.5063c0.055 0.7694-0.5242 1.4377-1.2936 1.4927C12.5664 18.9988 12.5332 19 12.5 19c-0.7714 0-1.3967-0.6253-1.3967-1.3967 0-0.0332 12e-4-0.0664 36e-4-0.0995l0.3219-4.5063C11.4689 12.4354 11.9366 12 12.5 12zM14 10V0c-2.2091 0-4 1.7909-4 4v6z" fill-rule="evenodd" />
</svg>