<svg viewBox="0 0 34 34" fill="none" width="32" height="32" xmlns="http://www.w3.org/2000/svg" xmlns:xlink="http://www.w3.org/1999/xlink">
    <path clip-rule="evenodd" d="M9 9.6c0-0.5601 0-0.8401 0.109-1.054 0.0959-0.1882 0.2488-0.3411 0.437-0.437C9.7599 8 10.0399 8 10.6 8h12.8c0.5601 0 0.8401 0 1.054 0.109 0.1882 0.0959 0.3411 0.2488 0.437 0.437C25 8.7599 25 9.0399 25 9.6v14.8c0 0.5601 0 0.8401-0.109 1.054-0.0479 0.0941-0.1101 0.1794-0.1839 0.2531L23 24l-1.5 1.5L20 24l-1.5 1.5L17 24l-1.5 1.5L14 24l-1.5 1.5L11 24 9.2929 25.7071c-0.0738-0.0737-0.136-0.159-0.1839-0.2531C9 25.2401 9 24.9601 9 24.4zM11.0545 10.273C11 10.38 11 10.52 11 10.8v0.4c0 0.28 0 0.42 0.0545 0.527 0.0479 0.0941 0.1244 0.1706 0.2185 0.2185C11.38 12 11.52 12 11.8 12h10.4c0.28 0 0.42 0 0.527-0.0545 0.0941-0.0479 0.1706-0.1244 0.2185-0.2185C23 11.62 23 11.48 23 11.2v-0.4c0-0.28 0-0.42-0.0545-0.527-0.0479-0.0941-0.1244-0.1706-0.2185-0.2185C22.62 10 22.48 10 22.2 10H11.8c-0.28 0-0.42 0-0.527 0.0545-0.0941 0.0479-0.1706 0.1244-0.2185 0.2185z" fill-rule="evenodd" />
</svg>